<mxfile host="app.diagrams.net" modified="2022-05-16T10:49:40.683Z" agent="5.0 (Macintosh; Intel Mac OS X 10_15_7) AppleWebKit/537.36 (KHTML, like Gecko) Chrome/101.0.4951.54 Safari/537.36" etag="FtKRH1_oVprKsKfdqOs1" version="18.0.5" type="github">
  <diagram id="C5RBs43oDa-KdzZeNtuy" name="Page-1">
    <mxGraphModel dx="946" dy="536" grid="1" gridSize="10" guides="1" tooltips="1" connect="1" arrows="1" fold="1" page="1" pageScale="1" pageWidth="827" pageHeight="1169" math="0" shadow="0">
      <root>
        <mxCell id="WIyWlLk6GJQsqaUBKTNV-0" />
        <mxCell id="WIyWlLk6GJQsqaUBKTNV-1" parent="WIyWlLk6GJQsqaUBKTNV-0" />
        <mxCell id="Y8hwOKd3gZam87dUadqH-6" value="theme" style="swimlane;" vertex="1" parent="WIyWlLk6GJQsqaUBKTNV-1">
          <mxGeometry x="120" y="90" width="200" height="60" as="geometry">
            <mxRectangle x="31" y="89" width="70" height="23" as="alternateBounds" />
          </mxGeometry>
        </mxCell>
        <mxCell id="Y8hwOKd3gZam87dUadqH-15" value="them_name" style="text;html=1;align=center;verticalAlign=middle;resizable=0;points=[];autosize=1;strokeColor=none;fillColor=none;" vertex="1" parent="Y8hwOKd3gZam87dUadqH-6">
          <mxGeometry y="29" width="80" height="20" as="geometry" />
        </mxCell>
        <mxCell id="Y8hwOKd3gZam87dUadqH-29" style="edgeStyle=orthogonalEdgeStyle;rounded=0;orthogonalLoop=1;jettySize=auto;html=1;exitX=0.5;exitY=0;exitDx=0;exitDy=0;entryX=0.5;entryY=1;entryDx=0;entryDy=0;" edge="1" parent="WIyWlLk6GJQsqaUBKTNV-1" source="Y8hwOKd3gZam87dUadqH-19" target="Y8hwOKd3gZam87dUadqH-6">
          <mxGeometry relative="1" as="geometry" />
        </mxCell>
        <mxCell id="Y8hwOKd3gZam87dUadqH-19" value="word   " style="swimlane;" vertex="1" parent="WIyWlLk6GJQsqaUBKTNV-1">
          <mxGeometry x="120" y="260" width="200" height="70" as="geometry">
            <mxRectangle x="31" y="89" width="70" height="23" as="alternateBounds" />
          </mxGeometry>
        </mxCell>
        <mxCell id="Y8hwOKd3gZam87dUadqH-20" value="new_word" style="text;html=1;align=center;verticalAlign=middle;resizable=0;points=[];autosize=1;strokeColor=none;fillColor=none;" vertex="1" parent="Y8hwOKd3gZam87dUadqH-19">
          <mxGeometry x="5" y="29" width="70" height="20" as="geometry" />
        </mxCell>
        <mxCell id="Y8hwOKd3gZam87dUadqH-30" style="edgeStyle=orthogonalEdgeStyle;rounded=0;orthogonalLoop=1;jettySize=auto;html=1;exitX=0.5;exitY=0;exitDx=0;exitDy=0;entryX=0.5;entryY=1;entryDx=0;entryDy=0;" edge="1" parent="WIyWlLk6GJQsqaUBKTNV-1" source="Y8hwOKd3gZam87dUadqH-24" target="Y8hwOKd3gZam87dUadqH-19">
          <mxGeometry relative="1" as="geometry" />
        </mxCell>
        <mxCell id="Y8hwOKd3gZam87dUadqH-24" value="description" style="swimlane;" vertex="1" parent="WIyWlLk6GJQsqaUBKTNV-1">
          <mxGeometry x="120" y="440" width="200" height="60" as="geometry">
            <mxRectangle x="31" y="89" width="70" height="23" as="alternateBounds" />
          </mxGeometry>
        </mxCell>
        <mxCell id="Y8hwOKd3gZam87dUadqH-25" value="explanation" style="text;html=1;align=center;verticalAlign=middle;resizable=0;points=[];autosize=1;strokeColor=none;fillColor=none;" vertex="1" parent="Y8hwOKd3gZam87dUadqH-24">
          <mxGeometry y="30" width="80" height="20" as="geometry" />
        </mxCell>
        <mxCell id="Y8hwOKd3gZam87dUadqH-36" style="edgeStyle=orthogonalEdgeStyle;rounded=0;orthogonalLoop=1;jettySize=auto;html=1;exitX=0;exitY=0.5;exitDx=0;exitDy=0;entryX=1;entryY=0.5;entryDx=0;entryDy=0;" edge="1" parent="WIyWlLk6GJQsqaUBKTNV-1" source="Y8hwOKd3gZam87dUadqH-31" target="Y8hwOKd3gZam87dUadqH-6">
          <mxGeometry relative="1" as="geometry" />
        </mxCell>
        <mxCell id="Y8hwOKd3gZam87dUadqH-31" value="output  " style="swimlane;" vertex="1" parent="WIyWlLk6GJQsqaUBKTNV-1">
          <mxGeometry x="440" y="90" width="200" height="60" as="geometry">
            <mxRectangle x="31" y="89" width="70" height="23" as="alternateBounds" />
          </mxGeometry>
        </mxCell>
        <mxCell id="Y8hwOKd3gZam87dUadqH-32" value="summury" style="text;html=1;align=center;verticalAlign=middle;resizable=0;points=[];autosize=1;strokeColor=none;fillColor=none;" vertex="1" parent="Y8hwOKd3gZam87dUadqH-31">
          <mxGeometry x="10" y="29" width="60" height="20" as="geometry" />
        </mxCell>
      </root>
    </mxGraphModel>
  </diagram>
</mxfile>
